# xmcd
#
# Track frame offsets:
#	150
#	17084
#	31837
#	48491
#	67080
#	80811
#	97591
#	127179
#	142281
#	164169
#	181890
#	196167
#	211537
#	231871
#	249613
#	259376
#
# Disc length: 3621 seconds
#
# Revision: 1
# Processed by: cddbd v1.5.2PL0 Copyright (c) Steve Scherf et al.
# Submitted via: EasyCDDAExtractor 11.5.0.1
#
DISCID=e90e2310
DTITLE=Various Artist - Vol 5
DYEAR=1900
DGENRE=Country
TTITLE0=Dwight Yoakan - Just Passin' Time
TTITLE1=Mike Stinson - Take Out The Trash
TTITLE2=The Knitters - Burning House Of Love
TTITLE3=Lucinda Williams - Change The Locks
TTITLE4=Shelby Lynne - Johnny Met June
TTITLE5=Collin Herring - Back Of Your Mind
TTITLE6=Mary Gauthier - Wheel Inside The Wheel
TTITLE7=Michelle Shocked - How You Play The Game
TTITLE8=Robert Earl Keen - The Great Hank
TTITLE9=Kathleen Edwards - In State
TTITLE10=Sarah Lee Guthrie and Johnny Irion - Holdin' Back
TTITLE11=Jeff Black - Hollow Of Your Hand
TTITLE12=The Greencards - Time
TTITLE13=Grey DeLisle - The Bloody Bucket
TTITLE14=Billy Don Burns - Keith Whitley Blue
TTITLE15=Banjo and Sullivan - I'm At Home Getting Hammered While She's Out Getti
TTITLE15=ng Nailed
EXTD=
EXTT0=
EXTT1=
EXTT2=
EXTT3=
EXTT4=
EXTT5=
EXTT6=
EXTT7=
EXTT8=
EXTT9=
EXTT10=
EXTT11=
EXTT12=
EXTT13=
EXTT14=
EXTT15=
PLAYORDER=
